<?xml version="1.0" encoding="UTF-8"?>
<svg cursor="pointer" version="1.1" viewBox="0 0 256 256" xmlns="http://www.w3.org/2000/svg" xmlns:xlink="http://www.w3.org/1999/xlink">
 <defs>
  <linearGradient id="linearGradient4291-3" x1="128.93" x2="129.29" y1="947" y2="1064.9" gradientTransform="matrix(1.2155 0 0 1.2155 -37.078 -235.32)" gradientUnits="userSpaceOnUse">
   <stop stop-color="#faa" offset="0"/>
   <stop stop-color="#f55" offset="1"/>
  </linearGradient>
 </defs>
 <g id="patternLayer">
  <path transform="translate(0 -796.36)" d="m13.57 925.5c61.24-15.86 88.405 71.676 88.405 71.676 14.004 13.77 31.959 22.303 51.263 2.456 33.158-95.417 87.745-81.855 92.242-74.132-2.28-13.092-4.124-25.992-7.214-39.444l-217.94 1.688c-1.657 12.467-4.078 25.086-6.753 37.756z" fill="url(#linearGradient4291-3)" fill-rule="evenodd" stroke="#000" stroke-width="1.216"/>
 </g>
 <g stroke="#000">
  <g stroke-width="1.216">
   <path d="M154.01 201.754c.434-.868 89.99-74.499 89.99-74.499-23.236-11.695-39.195 13.309-60.614 18.479zM16.527 126.82c1.519.87 84 70.11 84 70.11l-23.171-41.571-22.88-21.859z" fill="#ff2a2a" fill-rule="evenodd"/>
   <path d="m102.18 201.19c-30.832-27.466-62.982-46.713-88.612-71.343l5.065-4.911c16.387 18.837 57.533 48.304 80.614 68.868zm55.093-7.007c28.192-23.401 54.552-45.968 84.674-69.094 1.195 1.545 3.244 2.234 3.412 4.805-31.54 24.257-61.503 46.601-93.045 74.238z" fill="#f55" fill-rule="evenodd"/>
   <path d="m13.563 129.39c61.239-15.862 88.405 71.675 88.405 71.675 14.004 13.77 31.958 22.303 51.262 2.456 33.158-95.417 87.745-81.854 92.242-74.131-2.279-13.093-4.124-25.992-7.213-39.445l-217.94 1.688c-1.657 12.467-4.079 25.087-6.753 37.757z" fill="none"/>
   <path d="M102.067 201.08c-17.74-31.66-37.42-77.728-88.695-71.386-.953-2.77.918-6.972 1.419-7.981 72.317-.156 82.865 68.514 87.276 79.368zM154.009 202.174c6.245-17.73 22.194-85.224 89.928-81.843l1.535 9.21c-42.46-9.827-71.287 27.8-91.463 72.633zM20.124 94.086c-.422-3.735.206-15.292 4.26-20.95.447-1.666 139.82-1.177 209.73-1.765 1.835 1.732 5.644 20.167 4.613 21.622-1.598.78-55.217-.479-108.683-.136-16.1.103-32.185 1.437-46.892 1.706-34.038.621-60.689.261-63.028-.477z" fill="#ff8080" fill-rule="evenodd"/>
  </g>
  <path d="m62.961 143.47c21.983-9.1999 30.658-57.934 31.192-71.307m73.312-0.4553c2.182 17.047 13.672 57.282 29.708 68.62" fill="none" stroke-width=".608"/>
  <path d="m89.502 108.41 12.049 3.289c13.073 3.9911-1.0628 26.941-12.217 17.836l-17.697-11.459c-10.195-5.7964-4.9859-16.631 5.1548-13.451l7.9263 2.8434c0.99611-2.8273 1.1378-3.4773 1.0866-5.9738 0.12139 5.4122-2.2377 8.8952-4.9275 12.323 1.7015-2.1578 1.3636-1.8627 2.5139-3.6346l-5.3074-2.2438-4.6935 8.1342 14.529 8.8576 6.9841-11.875-6.1225-1.7867c-0.77989 1.5924-0.78809 3.4328-0.60335 5.6866-0.40954-4.8411 1.0412-9.474 4.0369-14.386-0.98678 1.7907-1.946 3.1955-2.7123 5.8406z" fill="#f95" fill-rule="evenodd" stroke-width="1.216"/>
  <path d="m175.12 109.6-12.049 3.289c-13.073 3.9911 1.0628 26.941 12.217 17.836l17.697-11.459c10.195-5.7964 4.9859-16.631-5.1548-13.451l-7.9263 2.8434c-0.99612-2.8273-1.1378-3.4773-1.0866-5.9738-0.12139 5.4122 2.2377 8.8952 4.9275 12.323-1.7016-2.1578-1.3636-1.8627-2.5139-3.6346l5.3074-2.2438 4.6935 8.1342-14.529 8.8576-6.9841-11.875 6.1225-1.7867c0.77989 1.5924 0.78808 3.4328 0.60335 5.6866 0.40953-4.8411-1.0412-9.474-4.0368-14.386 0.98677 1.7907 1.946 3.1955 2.7123 5.8406z" fill="#f95" fill-rule="evenodd" stroke-width="1.216"/>
 </g>
</svg>
